<mxfile host="app.diagrams.net" modified="2023-09-15T16:28:49.964Z" agent="Mozilla/5.0 (Windows NT 10.0; Win64; x64) AppleWebKit/537.36 (KHTML, like Gecko) Chrome/116.0.0.0 Safari/537.36" etag="s_zUuFHRZKghFdeAxMxe" version="21.7.5" type="github">
  <diagram name="Page-1" id="3SdiVgpNQmzeXbNPI_lX">
    <mxGraphModel dx="1434" dy="750" grid="1" gridSize="10" guides="1" tooltips="1" connect="1" arrows="1" fold="1" page="1" pageScale="1" pageWidth="850" pageHeight="1100" math="0" shadow="0">
      <root>
        <mxCell id="0" />
        <mxCell id="1" parent="0" />
        <mxCell id="nBwWK0P_p0l8yNshkHRR-2" value="&lt;b&gt;&lt;font style=&quot;font-size: 13px;&quot;&gt;Google Cloud Platform&lt;br&gt;Non-production&lt;br&gt;&lt;/font&gt;&lt;/b&gt;" style="rounded=0;whiteSpace=wrap;html=1;align=center;verticalAlign=top;fillColor=#D4E1F5;strokeColor=#36393d;fillStyle=solid;" parent="1" vertex="1">
          <mxGeometry x="520" y="80" width="440" height="880" as="geometry" />
        </mxCell>
        <mxCell id="nBwWK0P_p0l8yNshkHRR-1" value="&lt;b&gt;Ulta Beauty&lt;/b&gt;" style="rounded=0;whiteSpace=wrap;html=1;verticalAlign=top;fillColor=#fad7ac;strokeColor=#b46504;" parent="1" vertex="1">
          <mxGeometry x="80" y="80" width="360" height="440" as="geometry" />
        </mxCell>
        <mxCell id="nBwWK0P_p0l8yNshkHRR-7" value="" style="rounded=0;whiteSpace=wrap;html=1;fillStyle=auto;fillColor=#EAF4FC;strokeColor=#6c8ebf;" parent="1" vertex="1">
          <mxGeometry x="650" y="140" width="270" height="740" as="geometry" />
        </mxCell>
        <mxCell id="nBwWK0P_p0l8yNshkHRR-3" value="gcp-rtr-nonprod-01&lt;br&gt;Cloud Router&lt;br&gt;ASN 65444" style="rounded=0;whiteSpace=wrap;html=1;" parent="1" vertex="1">
          <mxGeometry x="700" y="220" width="120" height="60" as="geometry" />
        </mxCell>
        <mxCell id="nBwWK0P_p0l8yNshkHRR-8" value="&lt;font style=&quot;&quot;&gt;&lt;b style=&quot;font-size: 15px;&quot;&gt;us-central1&lt;/b&gt;&lt;br&gt;&lt;font style=&quot;font-size: 11px;&quot;&gt;Subnet: 10.23.0.0/?&lt;/font&gt;&lt;br&gt;&lt;/font&gt;" style="text;html=1;align=center;verticalAlign=middle;resizable=0;points=[];autosize=1;strokeColor=none;fillColor=none;" parent="1" vertex="1">
          <mxGeometry x="720" y="140" width="120" height="50" as="geometry" />
        </mxCell>
        <mxCell id="nBwWK0P_p0l8yNshkHRR-9" value="&lt;font style=&quot;font-size: 10px;&quot;&gt;Interface 0&lt;br style=&quot;border-color: var(--border-color);&quot;&gt;169.254.228.65/29&lt;br style=&quot;border-color: var(--border-color);&quot;&gt;VLAN 1100&lt;/font&gt;" style="text;html=1;align=center;verticalAlign=middle;resizable=0;points=[];autosize=1;strokeColor=none;fillColor=none;" parent="1" vertex="1">
          <mxGeometry x="810" y="220" width="110" height="60" as="geometry" />
        </mxCell>
        <mxCell id="nBwWK0P_p0l8yNshkHRR-10" value="&lt;font style=&quot;font-size: 10px;&quot;&gt;Interface 0&lt;br&gt;169.254.22.217/29&lt;br&gt;VLAN 1100&lt;/font&gt;" style="text;html=1;align=center;verticalAlign=middle;resizable=0;points=[];autosize=1;strokeColor=none;fillColor=none;" parent="1" vertex="1">
          <mxGeometry x="815" y="400" width="110" height="60" as="geometry" />
        </mxCell>
        <mxCell id="nBwWK0P_p0l8yNshkHRR-11" value="&lt;b&gt;CyrusOne (CH1) Aurora&lt;/b&gt;" style="rounded=0;whiteSpace=wrap;html=1;fillStyle=auto;fillColor=#FAF5EB;strokeColor=#b46504;verticalAlign=top;" parent="1" vertex="1">
          <mxGeometry x="125" y="140" width="455" height="360" as="geometry" />
        </mxCell>
        <mxCell id="nBwWK0P_p0l8yNshkHRR-19" style="edgeStyle=orthogonalEdgeStyle;rounded=0;orthogonalLoop=1;jettySize=auto;html=1;exitX=1;exitY=0.5;exitDx=0;exitDy=0;" parent="1" source="nBwWK0P_p0l8yNshkHRR-12" target="nBwWK0P_p0l8yNshkHRR-23" edge="1">
          <mxGeometry relative="1" as="geometry">
            <mxPoint x="670" y="430" as="targetPoint" />
          </mxGeometry>
        </mxCell>
        <mxCell id="nBwWK0P_p0l8yNshkHRR-12" value="Google Edge" style="rounded=0;whiteSpace=wrap;html=1;" parent="1" vertex="1">
          <mxGeometry x="450" y="400" width="120" height="60" as="geometry" />
        </mxCell>
        <mxCell id="nBwWK0P_p0l8yNshkHRR-20" style="edgeStyle=orthogonalEdgeStyle;rounded=0;orthogonalLoop=1;jettySize=auto;html=1;exitX=1;exitY=0.5;exitDx=0;exitDy=0;entryX=0;entryY=0.5;entryDx=0;entryDy=0;" parent="1" source="nBwWK0P_p0l8yNshkHRR-13" target="nBwWK0P_p0l8yNshkHRR-3" edge="1">
          <mxGeometry relative="1" as="geometry" />
        </mxCell>
        <mxCell id="nBwWK0P_p0l8yNshkHRR-13" value="Google Edge" style="rounded=0;whiteSpace=wrap;html=1;" parent="1" vertex="1">
          <mxGeometry x="450" y="220" width="120" height="60" as="geometry" />
        </mxCell>
        <mxCell id="nBwWK0P_p0l8yNshkHRR-18" style="edgeStyle=orthogonalEdgeStyle;rounded=0;orthogonalLoop=1;jettySize=auto;html=1;exitX=1;exitY=0.5;exitDx=0;exitDy=0;entryX=0;entryY=0.5;entryDx=0;entryDy=0;" parent="1" source="nBwWK0P_p0l8yNshkHRR-14" target="nBwWK0P_p0l8yNshkHRR-12" edge="1">
          <mxGeometry relative="1" as="geometry" />
        </mxCell>
        <mxCell id="nBwWK0P_p0l8yNshkHRR-14" value="Router&lt;br&gt;ASN: 65333" style="rounded=0;whiteSpace=wrap;html=1;" parent="1" vertex="1">
          <mxGeometry x="250" y="400" width="120" height="60" as="geometry" />
        </mxCell>
        <mxCell id="nBwWK0P_p0l8yNshkHRR-17" style="edgeStyle=orthogonalEdgeStyle;rounded=0;orthogonalLoop=1;jettySize=auto;html=1;exitX=1;exitY=0.5;exitDx=0;exitDy=0;entryX=0;entryY=0.5;entryDx=0;entryDy=0;" parent="1" source="nBwWK0P_p0l8yNshkHRR-15" target="nBwWK0P_p0l8yNshkHRR-13" edge="1">
          <mxGeometry relative="1" as="geometry" />
        </mxCell>
        <mxCell id="nBwWK0P_p0l8yNshkHRR-15" value="Router&lt;br style=&quot;border-color: var(--border-color);&quot;&gt;ASN: 65333" style="rounded=0;whiteSpace=wrap;html=1;" parent="1" vertex="1">
          <mxGeometry x="250" y="220" width="120" height="60" as="geometry" />
        </mxCell>
        <mxCell id="nBwWK0P_p0l8yNshkHRR-21" value="&lt;font style=&quot;font-size: 10px;&quot;&gt;Interface Y&lt;br&gt;169.254.22.218/29&lt;br&gt;VLAN 1100&lt;/font&gt;" style="text;html=1;align=center;verticalAlign=middle;resizable=0;points=[];autosize=1;strokeColor=none;fillColor=none;" parent="1" vertex="1">
          <mxGeometry x="355" y="440" width="110" height="60" as="geometry" />
        </mxCell>
        <mxCell id="nBwWK0P_p0l8yNshkHRR-22" value="&lt;font style=&quot;font-size: 10px;&quot;&gt;Interface X&lt;br style=&quot;border-color: var(--border-color);&quot;&gt;169.254.228.66/29&lt;br style=&quot;border-color: var(--border-color);&quot;&gt;VLAN 1100&lt;/font&gt;" style="text;html=1;align=center;verticalAlign=middle;resizable=0;points=[];autosize=1;strokeColor=none;fillColor=none;" parent="1" vertex="1">
          <mxGeometry x="355" y="180" width="110" height="60" as="geometry" />
        </mxCell>
        <mxCell id="nBwWK0P_p0l8yNshkHRR-23" value="gcp-rtr-nonprod-02&lt;br&gt;Cloud Router&lt;br&gt;ASN 65444" style="rounded=0;whiteSpace=wrap;html=1;" parent="1" vertex="1">
          <mxGeometry x="700" y="400" width="120" height="60" as="geometry" />
        </mxCell>
        <mxCell id="nBwWK0P_p0l8yNshkHRR-24" value="&lt;b&gt;&lt;font style=&quot;font-size: 19px;&quot; color=&quot;#ff0000&quot;&gt;STANDBY&lt;/font&gt;&lt;/b&gt;" style="text;html=1;align=center;verticalAlign=middle;resizable=0;points=[];autosize=1;strokeColor=none;fillColor=none;" parent="1" vertex="1">
          <mxGeometry x="140" y="410" width="110" height="40" as="geometry" />
        </mxCell>
        <mxCell id="nBwWK0P_p0l8yNshkHRR-25" value="&lt;b&gt;Megaport (Equinix Chicago)&lt;/b&gt;" style="rounded=0;whiteSpace=wrap;html=1;fillStyle=auto;fillColor=#FAF5EB;strokeColor=#b46504;verticalAlign=top;" parent="1" vertex="1">
          <mxGeometry x="125" y="530" width="455" height="360" as="geometry" />
        </mxCell>
        <mxCell id="nBwWK0P_p0l8yNshkHRR-38" style="edgeStyle=orthogonalEdgeStyle;rounded=0;orthogonalLoop=1;jettySize=auto;html=1;exitX=1;exitY=0.5;exitDx=0;exitDy=0;entryX=0;entryY=0.5;entryDx=0;entryDy=0;" parent="1" source="nBwWK0P_p0l8yNshkHRR-26" target="nBwWK0P_p0l8yNshkHRR-28" edge="1">
          <mxGeometry relative="1" as="geometry" />
        </mxCell>
        <mxCell id="nBwWK0P_p0l8yNshkHRR-26" value="ord-zone2-7&lt;br&gt;Google Edge" style="rounded=0;whiteSpace=wrap;html=1;" parent="1" vertex="1">
          <mxGeometry x="450" y="790" width="120" height="60" as="geometry" />
        </mxCell>
        <mxCell id="nBwWK0P_p0l8yNshkHRR-39" style="edgeStyle=orthogonalEdgeStyle;rounded=0;orthogonalLoop=1;jettySize=auto;html=1;exitX=1;exitY=0.5;exitDx=0;exitDy=0;entryX=0;entryY=0.5;entryDx=0;entryDy=0;" parent="1" source="nBwWK0P_p0l8yNshkHRR-27" target="nBwWK0P_p0l8yNshkHRR-29" edge="1">
          <mxGeometry relative="1" as="geometry" />
        </mxCell>
        <mxCell id="nBwWK0P_p0l8yNshkHRR-27" value="ord-zone1-7&lt;br&gt;Google Edge" style="rounded=0;whiteSpace=wrap;html=1;" parent="1" vertex="1">
          <mxGeometry x="450" y="630" width="120" height="60" as="geometry" />
        </mxCell>
        <mxCell id="nBwWK0P_p0l8yNshkHRR-28" value="usgc-rt-rax-02&lt;br&gt;Cloud Router&lt;br&gt;ASN 16550" style="rounded=0;whiteSpace=wrap;html=1;" parent="1" vertex="1">
          <mxGeometry x="700" y="790" width="120" height="60" as="geometry" />
        </mxCell>
        <mxCell id="nBwWK0P_p0l8yNshkHRR-29" value="usgc-rt-rax-01&lt;br&gt;Cloud Router&lt;br&gt;ASN 16550" style="rounded=0;whiteSpace=wrap;html=1;" parent="1" vertex="1">
          <mxGeometry x="700" y="630" width="120" height="60" as="geometry" />
        </mxCell>
        <mxCell id="nBwWK0P_p0l8yNshkHRR-30" value="&lt;font style=&quot;font-size: 10px;&quot;&gt;Interface Y&lt;br&gt;169.254.39.226/29&lt;br&gt;VLAN 350&lt;/font&gt;" style="text;html=1;align=center;verticalAlign=middle;resizable=0;points=[];autosize=1;strokeColor=none;fillColor=none;" parent="1" vertex="1">
          <mxGeometry x="350" y="820" width="110" height="60" as="geometry" />
        </mxCell>
        <mxCell id="nBwWK0P_p0l8yNshkHRR-37" style="edgeStyle=orthogonalEdgeStyle;rounded=0;orthogonalLoop=1;jettySize=auto;html=1;exitX=1;exitY=0.5;exitDx=0;exitDy=0;" parent="1" source="nBwWK0P_p0l8yNshkHRR-31" target="nBwWK0P_p0l8yNshkHRR-26" edge="1">
          <mxGeometry relative="1" as="geometry" />
        </mxCell>
        <mxCell id="nBwWK0P_p0l8yNshkHRR-31" value="Router&lt;br&gt;ASN: 12200" style="rounded=0;whiteSpace=wrap;html=1;" parent="1" vertex="1">
          <mxGeometry x="240" y="790" width="120" height="60" as="geometry" />
        </mxCell>
        <mxCell id="nBwWK0P_p0l8yNshkHRR-32" value="&lt;font style=&quot;font-size: 10px;&quot;&gt;Interface 0&lt;br style=&quot;border-color: var(--border-color);&quot;&gt;169.254.124.17/29&lt;br style=&quot;border-color: var(--border-color);&quot;&gt;VLAN 361&lt;/font&gt;" style="text;html=1;align=center;verticalAlign=middle;resizable=0;points=[];autosize=1;strokeColor=none;fillColor=none;" parent="1" vertex="1">
          <mxGeometry x="815" y="630" width="110" height="60" as="geometry" />
        </mxCell>
        <mxCell id="nBwWK0P_p0l8yNshkHRR-33" value="&lt;font style=&quot;font-size: 10px;&quot;&gt;Interface 0&lt;br style=&quot;border-color: var(--border-color);&quot;&gt;169.254.39.225/29&lt;br style=&quot;border-color: var(--border-color);&quot;&gt;VLAN 350&lt;/font&gt;" style="text;html=1;align=center;verticalAlign=middle;resizable=0;points=[];autosize=1;strokeColor=none;fillColor=none;" parent="1" vertex="1">
          <mxGeometry x="810" y="790" width="110" height="60" as="geometry" />
        </mxCell>
        <mxCell id="nBwWK0P_p0l8yNshkHRR-34" value="&lt;font style=&quot;font-size: 10px;&quot;&gt;Interface X&lt;br style=&quot;border-color: var(--border-color);&quot;&gt;169.254.124.18/29&lt;br style=&quot;border-color: var(--border-color);&quot;&gt;VLAN 361&lt;/font&gt;" style="text;html=1;align=center;verticalAlign=middle;resizable=0;points=[];autosize=1;strokeColor=none;fillColor=none;" parent="1" vertex="1">
          <mxGeometry x="345" y="660" width="110" height="60" as="geometry" />
        </mxCell>
        <mxCell id="nBwWK0P_p0l8yNshkHRR-36" style="edgeStyle=orthogonalEdgeStyle;rounded=0;orthogonalLoop=1;jettySize=auto;html=1;exitX=1;exitY=0.5;exitDx=0;exitDy=0;" parent="1" source="nBwWK0P_p0l8yNshkHRR-35" target="nBwWK0P_p0l8yNshkHRR-27" edge="1">
          <mxGeometry relative="1" as="geometry" />
        </mxCell>
        <mxCell id="nBwWK0P_p0l8yNshkHRR-35" value="Router&lt;br&gt;ASN: 12200" style="rounded=0;whiteSpace=wrap;html=1;" parent="1" vertex="1">
          <mxGeometry x="235" y="630" width="120" height="60" as="geometry" />
        </mxCell>
        <mxCell id="nBwWK0P_p0l8yNshkHRR-50" value="&lt;b&gt;&lt;font style=&quot;font-size: 13px;&quot;&gt;Google Cloud Platform&lt;br&gt;Production&lt;br&gt;&lt;/font&gt;&lt;/b&gt;" style="rounded=0;whiteSpace=wrap;html=1;align=center;verticalAlign=top;fillColor=#D4E1F5;strokeColor=#36393d;fillStyle=solid;" parent="1" vertex="1">
          <mxGeometry x="1520" y="80" width="440" height="1200" as="geometry" />
        </mxCell>
        <mxCell id="nBwWK0P_p0l8yNshkHRR-51" value="&lt;b&gt;Ulta Beauty&lt;/b&gt;" style="rounded=0;whiteSpace=wrap;html=1;verticalAlign=top;fillColor=#fad7ac;strokeColor=#b46504;" parent="1" vertex="1">
          <mxGeometry x="1080" y="80" width="360" height="440" as="geometry" />
        </mxCell>
        <mxCell id="nBwWK0P_p0l8yNshkHRR-52" value="" style="rounded=0;whiteSpace=wrap;html=1;fillStyle=auto;fillColor=#EAF4FC;strokeColor=#6c8ebf;" parent="1" vertex="1">
          <mxGeometry x="1650" y="140" width="270" height="740" as="geometry" />
        </mxCell>
        <mxCell id="nBwWK0P_p0l8yNshkHRR-53" value="gcp-rtr-prod-01&lt;br&gt;Cloud Router&lt;br&gt;ASN 65222" style="rounded=0;whiteSpace=wrap;html=1;" parent="1" vertex="1">
          <mxGeometry x="1700" y="220" width="120" height="60" as="geometry" />
        </mxCell>
        <mxCell id="nBwWK0P_p0l8yNshkHRR-54" value="&lt;font style=&quot;&quot;&gt;&lt;b style=&quot;font-size: 15px;&quot;&gt;us-central1&lt;/b&gt;&lt;br&gt;&lt;font style=&quot;font-size: 11px;&quot;&gt;Subnet: 10.23.0.0/?&lt;/font&gt;&lt;br&gt;&lt;/font&gt;" style="text;html=1;align=center;verticalAlign=middle;resizable=0;points=[];autosize=1;strokeColor=none;fillColor=none;" parent="1" vertex="1">
          <mxGeometry x="1720" y="140" width="120" height="50" as="geometry" />
        </mxCell>
        <mxCell id="nBwWK0P_p0l8yNshkHRR-55" value="&lt;font style=&quot;font-size: 10px;&quot;&gt;Interface 0&lt;br style=&quot;border-color: var(--border-color);&quot;&gt;169.254.97.169/29&lt;br style=&quot;border-color: var(--border-color);&quot;&gt;VLAN 1100&lt;/font&gt;" style="text;html=1;align=center;verticalAlign=middle;resizable=0;points=[];autosize=1;strokeColor=none;fillColor=none;" parent="1" vertex="1">
          <mxGeometry x="1810" y="220" width="110" height="60" as="geometry" />
        </mxCell>
        <mxCell id="nBwWK0P_p0l8yNshkHRR-56" value="&lt;font style=&quot;font-size: 10px;&quot;&gt;Interface 0&lt;br&gt;169.254.18.57/29&lt;br&gt;VLAN 1100&lt;/font&gt;" style="text;html=1;align=center;verticalAlign=middle;resizable=0;points=[];autosize=1;strokeColor=none;fillColor=none;" parent="1" vertex="1">
          <mxGeometry x="1820" y="400" width="100" height="60" as="geometry" />
        </mxCell>
        <mxCell id="nBwWK0P_p0l8yNshkHRR-57" value="&lt;b&gt;CyrusOne (CH1) Aurora&lt;/b&gt;" style="rounded=0;whiteSpace=wrap;html=1;fillStyle=auto;fillColor=#FAF5EB;strokeColor=#b46504;verticalAlign=top;" parent="1" vertex="1">
          <mxGeometry x="1125" y="140" width="455" height="360" as="geometry" />
        </mxCell>
        <mxCell id="nBwWK0P_p0l8yNshkHRR-58" style="edgeStyle=orthogonalEdgeStyle;rounded=0;orthogonalLoop=1;jettySize=auto;html=1;exitX=1;exitY=0.5;exitDx=0;exitDy=0;" parent="1" source="nBwWK0P_p0l8yNshkHRR-59" target="nBwWK0P_p0l8yNshkHRR-68" edge="1">
          <mxGeometry relative="1" as="geometry">
            <mxPoint x="1670" y="430" as="targetPoint" />
          </mxGeometry>
        </mxCell>
        <mxCell id="nBwWK0P_p0l8yNshkHRR-59" value="Google Edge" style="rounded=0;whiteSpace=wrap;html=1;" parent="1" vertex="1">
          <mxGeometry x="1450" y="400" width="120" height="60" as="geometry" />
        </mxCell>
        <mxCell id="nBwWK0P_p0l8yNshkHRR-60" style="edgeStyle=orthogonalEdgeStyle;rounded=0;orthogonalLoop=1;jettySize=auto;html=1;exitX=1;exitY=0.5;exitDx=0;exitDy=0;entryX=0;entryY=0.5;entryDx=0;entryDy=0;" parent="1" source="nBwWK0P_p0l8yNshkHRR-61" target="nBwWK0P_p0l8yNshkHRR-53" edge="1">
          <mxGeometry relative="1" as="geometry" />
        </mxCell>
        <mxCell id="nBwWK0P_p0l8yNshkHRR-61" value="Google Edge" style="rounded=0;whiteSpace=wrap;html=1;" parent="1" vertex="1">
          <mxGeometry x="1450" y="220" width="120" height="60" as="geometry" />
        </mxCell>
        <mxCell id="nBwWK0P_p0l8yNshkHRR-62" style="edgeStyle=orthogonalEdgeStyle;rounded=0;orthogonalLoop=1;jettySize=auto;html=1;exitX=1;exitY=0.5;exitDx=0;exitDy=0;entryX=0;entryY=0.5;entryDx=0;entryDy=0;" parent="1" source="nBwWK0P_p0l8yNshkHRR-63" target="nBwWK0P_p0l8yNshkHRR-59" edge="1">
          <mxGeometry relative="1" as="geometry" />
        </mxCell>
        <mxCell id="nBwWK0P_p0l8yNshkHRR-63" value="Router&lt;br&gt;ASN: 65111" style="rounded=0;whiteSpace=wrap;html=1;" parent="1" vertex="1">
          <mxGeometry x="1250" y="400" width="120" height="60" as="geometry" />
        </mxCell>
        <mxCell id="nBwWK0P_p0l8yNshkHRR-64" style="edgeStyle=orthogonalEdgeStyle;rounded=0;orthogonalLoop=1;jettySize=auto;html=1;exitX=1;exitY=0.5;exitDx=0;exitDy=0;entryX=0;entryY=0.5;entryDx=0;entryDy=0;" parent="1" source="nBwWK0P_p0l8yNshkHRR-65" target="nBwWK0P_p0l8yNshkHRR-61" edge="1">
          <mxGeometry relative="1" as="geometry" />
        </mxCell>
        <mxCell id="nBwWK0P_p0l8yNshkHRR-65" value="Router&lt;br style=&quot;border-color: var(--border-color);&quot;&gt;ASN: 65111" style="rounded=0;whiteSpace=wrap;html=1;" parent="1" vertex="1">
          <mxGeometry x="1250" y="220" width="120" height="60" as="geometry" />
        </mxCell>
        <mxCell id="nBwWK0P_p0l8yNshkHRR-66" value="&lt;font style=&quot;font-size: 10px;&quot;&gt;Interface Y&lt;br&gt;169.254.18.58/29&lt;br&gt;VLAN 1100&lt;/font&gt;" style="text;html=1;align=center;verticalAlign=middle;resizable=0;points=[];autosize=1;strokeColor=none;fillColor=none;" parent="1" vertex="1">
          <mxGeometry x="1360" y="440" width="100" height="60" as="geometry" />
        </mxCell>
        <mxCell id="nBwWK0P_p0l8yNshkHRR-67" value="&lt;font style=&quot;font-size: 10px;&quot;&gt;Interface X&lt;br style=&quot;border-color: var(--border-color);&quot;&gt;169.254.97.170/29&lt;br style=&quot;border-color: var(--border-color);&quot;&gt;VLAN 1100&lt;/font&gt;" style="text;html=1;align=center;verticalAlign=middle;resizable=0;points=[];autosize=1;strokeColor=none;fillColor=none;" parent="1" vertex="1">
          <mxGeometry x="1355" y="180" width="110" height="60" as="geometry" />
        </mxCell>
        <mxCell id="nBwWK0P_p0l8yNshkHRR-68" value="gcp-rtr-prod-02&lt;br&gt;Cloud Router&lt;br&gt;ASN 65222" style="rounded=0;whiteSpace=wrap;html=1;" parent="1" vertex="1">
          <mxGeometry x="1700" y="400" width="120" height="60" as="geometry" />
        </mxCell>
        <mxCell id="nBwWK0P_p0l8yNshkHRR-69" value="&lt;b&gt;&lt;font style=&quot;font-size: 19px;&quot; color=&quot;#ff0000&quot;&gt;STANDBY&lt;/font&gt;&lt;/b&gt;" style="text;html=1;align=center;verticalAlign=middle;resizable=0;points=[];autosize=1;strokeColor=none;fillColor=none;" parent="1" vertex="1">
          <mxGeometry x="1140" y="410" width="110" height="40" as="geometry" />
        </mxCell>
        <mxCell id="nBwWK0P_p0l8yNshkHRR-70" value="&lt;b&gt;Megaport (Equinix Chicago)&lt;/b&gt;" style="rounded=0;whiteSpace=wrap;html=1;fillStyle=auto;fillColor=#FAF5EB;strokeColor=#b46504;verticalAlign=top;" parent="1" vertex="1">
          <mxGeometry x="1125" y="530" width="455" height="360" as="geometry" />
        </mxCell>
        <mxCell id="nBwWK0P_p0l8yNshkHRR-71" style="edgeStyle=orthogonalEdgeStyle;rounded=0;orthogonalLoop=1;jettySize=auto;html=1;exitX=1;exitY=0.5;exitDx=0;exitDy=0;entryX=0;entryY=0.5;entryDx=0;entryDy=0;" parent="1" source="nBwWK0P_p0l8yNshkHRR-72" target="nBwWK0P_p0l8yNshkHRR-75" edge="1">
          <mxGeometry relative="1" as="geometry" />
        </mxCell>
        <mxCell id="nBwWK0P_p0l8yNshkHRR-72" value="ord-zone2-7&lt;br&gt;Google Edge" style="rounded=0;whiteSpace=wrap;html=1;" parent="1" vertex="1">
          <mxGeometry x="1450" y="790" width="120" height="60" as="geometry" />
        </mxCell>
        <mxCell id="nBwWK0P_p0l8yNshkHRR-73" style="edgeStyle=orthogonalEdgeStyle;rounded=0;orthogonalLoop=1;jettySize=auto;html=1;exitX=1;exitY=0.5;exitDx=0;exitDy=0;entryX=0;entryY=0.5;entryDx=0;entryDy=0;" parent="1" source="nBwWK0P_p0l8yNshkHRR-74" target="nBwWK0P_p0l8yNshkHRR-76" edge="1">
          <mxGeometry relative="1" as="geometry" />
        </mxCell>
        <mxCell id="nBwWK0P_p0l8yNshkHRR-74" value="ord-zone1-7&lt;br&gt;Google Edge" style="rounded=0;whiteSpace=wrap;html=1;" parent="1" vertex="1">
          <mxGeometry x="1450" y="630" width="120" height="60" as="geometry" />
        </mxCell>
        <mxCell id="nBwWK0P_p0l8yNshkHRR-75" value="usgc-rt-rax-02&lt;br&gt;Cloud Router&lt;br&gt;ASN 16550" style="rounded=0;whiteSpace=wrap;html=1;" parent="1" vertex="1">
          <mxGeometry x="1700" y="790" width="120" height="60" as="geometry" />
        </mxCell>
        <mxCell id="nBwWK0P_p0l8yNshkHRR-76" value="usgc-rt-rax-01&lt;br&gt;Cloud Router&lt;br&gt;ASN 16550" style="rounded=0;whiteSpace=wrap;html=1;" parent="1" vertex="1">
          <mxGeometry x="1700" y="630" width="120" height="60" as="geometry" />
        </mxCell>
        <mxCell id="nBwWK0P_p0l8yNshkHRR-77" value="&lt;font style=&quot;font-size: 10px;&quot;&gt;Interface Y&lt;br&gt;169.254.49.2/29&lt;br&gt;VLAN 355&lt;/font&gt;" style="text;html=1;align=center;verticalAlign=middle;resizable=0;points=[];autosize=1;strokeColor=none;fillColor=none;" parent="1" vertex="1">
          <mxGeometry x="1350" y="820" width="100" height="60" as="geometry" />
        </mxCell>
        <mxCell id="nBwWK0P_p0l8yNshkHRR-78" style="edgeStyle=orthogonalEdgeStyle;rounded=0;orthogonalLoop=1;jettySize=auto;html=1;exitX=1;exitY=0.5;exitDx=0;exitDy=0;" parent="1" source="nBwWK0P_p0l8yNshkHRR-79" target="nBwWK0P_p0l8yNshkHRR-72" edge="1">
          <mxGeometry relative="1" as="geometry" />
        </mxCell>
        <mxCell id="nBwWK0P_p0l8yNshkHRR-79" value="Router&lt;br&gt;ASN: 12200" style="rounded=0;whiteSpace=wrap;html=1;" parent="1" vertex="1">
          <mxGeometry x="1240" y="790" width="120" height="60" as="geometry" />
        </mxCell>
        <mxCell id="nBwWK0P_p0l8yNshkHRR-80" value="&lt;font style=&quot;font-size: 10px;&quot;&gt;Interface 0&lt;br style=&quot;border-color: var(--border-color);&quot;&gt;169.254.48.49/29&lt;br style=&quot;border-color: var(--border-color);&quot;&gt;VLAN 355&lt;/font&gt;" style="text;html=1;align=center;verticalAlign=middle;resizable=0;points=[];autosize=1;strokeColor=none;fillColor=none;" parent="1" vertex="1">
          <mxGeometry x="1820" y="630" width="100" height="60" as="geometry" />
        </mxCell>
        <mxCell id="nBwWK0P_p0l8yNshkHRR-81" value="&lt;font style=&quot;font-size: 10px;&quot;&gt;Interface 0&lt;br style=&quot;border-color: var(--border-color);&quot;&gt;169.254.49.1/29&lt;br style=&quot;border-color: var(--border-color);&quot;&gt;VLAN 355&lt;/font&gt;" style="text;html=1;align=center;verticalAlign=middle;resizable=0;points=[];autosize=1;strokeColor=none;fillColor=none;" parent="1" vertex="1">
          <mxGeometry x="1815" y="790" width="100" height="60" as="geometry" />
        </mxCell>
        <mxCell id="nBwWK0P_p0l8yNshkHRR-82" value="&lt;font style=&quot;font-size: 10px;&quot;&gt;Interface X&lt;br style=&quot;border-color: var(--border-color);&quot;&gt;169.254.48.50/29&lt;br style=&quot;border-color: var(--border-color);&quot;&gt;VLAN 355&lt;/font&gt;" style="text;html=1;align=center;verticalAlign=middle;resizable=0;points=[];autosize=1;strokeColor=none;fillColor=none;" parent="1" vertex="1">
          <mxGeometry x="1350" y="660" width="100" height="60" as="geometry" />
        </mxCell>
        <mxCell id="nBwWK0P_p0l8yNshkHRR-83" style="edgeStyle=orthogonalEdgeStyle;rounded=0;orthogonalLoop=1;jettySize=auto;html=1;exitX=1;exitY=0.5;exitDx=0;exitDy=0;" parent="1" source="nBwWK0P_p0l8yNshkHRR-84" target="nBwWK0P_p0l8yNshkHRR-74" edge="1">
          <mxGeometry relative="1" as="geometry" />
        </mxCell>
        <mxCell id="nBwWK0P_p0l8yNshkHRR-84" value="Router&lt;br&gt;ASN: 12200" style="rounded=0;whiteSpace=wrap;html=1;" parent="1" vertex="1">
          <mxGeometry x="1235" y="630" width="120" height="60" as="geometry" />
        </mxCell>
        <mxCell id="nBwWK0P_p0l8yNshkHRR-85" value="&lt;b&gt;Ulta Beauty&lt;/b&gt;" style="rounded=0;whiteSpace=wrap;html=1;verticalAlign=top;fillColor=#fad7ac;strokeColor=#b46504;" parent="1" vertex="1">
          <mxGeometry x="1080" y="960" width="360" height="280" as="geometry" />
        </mxCell>
        <mxCell id="nBwWK0P_p0l8yNshkHRR-86" value="&lt;font style=&quot;&quot;&gt;&lt;b style=&quot;font-size: 15px;&quot;&gt;us-east1&lt;/b&gt;&lt;br&gt;&lt;font style=&quot;font-size: 11px;&quot;&gt;Subnet: 10.23.0.0/?&lt;/font&gt;&lt;/font&gt;" style="rounded=0;whiteSpace=wrap;html=1;fillStyle=auto;fillColor=#EAF4FC;strokeColor=#6c8ebf;verticalAlign=top;" parent="1" vertex="1">
          <mxGeometry x="1650" y="960" width="270" height="280" as="geometry" />
        </mxCell>
        <mxCell id="nBwWK0P_p0l8yNshkHRR-87" value="ulta-network-prod2-cr&lt;br&gt;Cloud Router&lt;br&gt;ASN 64512" style="rounded=0;whiteSpace=wrap;html=1;" parent="1" vertex="1">
          <mxGeometry x="1700" y="1100" width="120" height="60" as="geometry" />
        </mxCell>
        <mxCell id="nBwWK0P_p0l8yNshkHRR-88" value="&lt;font style=&quot;font-size: 10px;&quot;&gt;Interface 0&lt;br style=&quot;border-color: var(--border-color);&quot;&gt;169.254.5.225/29&lt;br&gt;&lt;/font&gt;" style="text;html=1;align=center;verticalAlign=middle;resizable=0;points=[];autosize=1;strokeColor=none;fillColor=none;" parent="1" vertex="1">
          <mxGeometry x="1815" y="1110" width="100" height="40" as="geometry" />
        </mxCell>
        <mxCell id="nBwWK0P_p0l8yNshkHRR-89" value="&lt;b&gt;S2S Palo ?&lt;/b&gt;" style="rounded=0;whiteSpace=wrap;html=1;fillStyle=auto;fillColor=#FAF5EB;strokeColor=#b46504;verticalAlign=top;" parent="1" vertex="1">
          <mxGeometry x="1125" y="1020" width="455" height="190" as="geometry" />
        </mxCell>
        <mxCell id="nBwWK0P_p0l8yNshkHRR-90" style="edgeStyle=orthogonalEdgeStyle;rounded=0;orthogonalLoop=1;jettySize=auto;html=1;exitX=1;exitY=0.5;exitDx=0;exitDy=0;" parent="1" source="nBwWK0P_p0l8yNshkHRR-91" target="nBwWK0P_p0l8yNshkHRR-93" edge="1">
          <mxGeometry relative="1" as="geometry" />
        </mxCell>
        <mxCell id="nBwWK0P_p0l8yNshkHRR-91" value="Router&lt;br&gt;ASN: 64962" style="rounded=0;whiteSpace=wrap;html=1;" parent="1" vertex="1">
          <mxGeometry x="1250" y="1100" width="120" height="60" as="geometry" />
        </mxCell>
        <mxCell id="nBwWK0P_p0l8yNshkHRR-92" style="edgeStyle=orthogonalEdgeStyle;rounded=0;orthogonalLoop=1;jettySize=auto;html=1;exitX=1;exitY=0.5;exitDx=0;exitDy=0;entryX=0;entryY=0.5;entryDx=0;entryDy=0;" parent="1" source="nBwWK0P_p0l8yNshkHRR-93" target="nBwWK0P_p0l8yNshkHRR-87" edge="1">
          <mxGeometry relative="1" as="geometry" />
        </mxCell>
        <mxCell id="nBwWK0P_p0l8yNshkHRR-93" value="Google Edge" style="rounded=0;whiteSpace=wrap;html=1;" parent="1" vertex="1">
          <mxGeometry x="1450" y="1100" width="120" height="60" as="geometry" />
        </mxCell>
        <mxCell id="nBwWK0P_p0l8yNshkHRR-94" value="&lt;font style=&quot;font-size: 10px;&quot;&gt;Interface X&lt;br&gt;169.254.5.226/29&lt;br&gt;&lt;/font&gt;" style="text;html=1;align=center;verticalAlign=middle;resizable=0;points=[];autosize=1;strokeColor=none;fillColor=none;" parent="1" vertex="1">
          <mxGeometry x="1360" y="1160" width="100" height="40" as="geometry" />
        </mxCell>
      </root>
    </mxGraphModel>
  </diagram>
</mxfile>
